<svg xmlns="http://www.w3.org/2000/svg" viewBox="0 0 256 256" role="img" aria-label="Interview Helper P logo">
  <defs>
    <linearGradient id="bg" x1="42" y1="30" x2="214" y2="226" gradientUnits="userSpaceOnUse">
      <stop offset="0" stop-color="#171A1F"/>
      <stop offset="0.55" stop-color="#0E1117"/>
      <stop offset="1" stop-color="#26313A"/>
    </linearGradient>
    <linearGradient id="metal" x1="74" y1="58" x2="180" y2="198" gradientUnits="userSpaceOnUse">
      <stop offset="0" stop-color="#F4F1E8"/>
      <stop offset="0.34" stop-color="#B9BBB8"/>
      <stop offset="0.66" stop-color="#6F7474"/>
      <stop offset="1" stop-color="#ECEBE5"/>
    </linearGradient>
    <linearGradient id="edge" x1="40" y1="36" x2="214" y2="220" gradientUnits="userSpaceOnUse">
      <stop offset="0" stop-color="#FFFFFF" stop-opacity="0.24"/>
      <stop offset="0.48" stop-color="#FFFFFF" stop-opacity="0.04"/>
      <stop offset="1" stop-color="#000000" stop-opacity="0.20"/>
    </linearGradient>
    <filter id="shadow" x="-20%" y="-20%" width="140%" height="140%">
      <feDropShadow dx="0" dy="7" stdDeviation="8" flood-color="#000000" flood-opacity="0.42"/>
    </filter>
  </defs>
  <rect width="256" height="256" rx="46" fill="url(#bg)"/>
  <rect x="8" y="8" width="240" height="240" rx="40" fill="none" stroke="url(#edge)" stroke-width="2"/>
  <path d="M78 198V58h63c17 0 30 4 40 13 10 8 15 20 15 35s-5 27-15 36c-10 9-23 13-40 13h-31v43H78zm32-72h29c8 0 14-2 19-5 5-4 7-9 7-15s-2-11-7-15c-5-3-11-5-19-5h-29v40z" fill="url(#metal)" filter="url(#shadow)"/>
  <path d="M110 126h29c8 0 14-2 19-5 5-4 7-9 7-15s-2-11-7-15c-5-3-11-5-19-5h-29v40z" fill="#0E1117" opacity="0.34"/>
  <path d="M180 183h22v22h-22z" fill="#5EEAD4" opacity="0.9"/>
</svg>
