<svg xmlns="http://www.w3.org/2000/svg" viewBox="0 0 1920 1080" role="img" aria-label="Interview Helper infographic: prepare evidence before the call, transcribe both sides during the call, match questions to prepared stories, and show private coaching only when evidence matches.">
  <defs>
    <linearGradient id="pageBg" x1="0" y1="0" x2="1" y2="1">
      <stop offset="0" stop-color="#f8fbfc"/>
      <stop offset="0.58" stop-color="#eef5f7"/>
      <stop offset="1" stop-color="#e7f0f2"/>
    </linearGradient>
    <linearGradient id="teal" x1="0" y1="0" x2="1" y2="1">
      <stop offset="0" stop-color="#2f7f95"/>
      <stop offset="1" stop-color="#1f596d"/>
    </linearGradient>
    <linearGradient id="inkPanel" x1="0" y1="0" x2="1" y2="1">
      <stop offset="0" stop-color="#111827"/>
      <stop offset="1" stop-color="#172234"/>
    </linearGradient>
    <filter id="shadow" x="-8%" y="-12%" width="116%" height="124%">
      <feDropShadow dx="0" dy="18" stdDeviation="22" flood-color="#122034" flood-opacity="0.10"/>
    </filter>
    <marker id="arrow" viewBox="0 0 10 10" refX="8" refY="5" markerWidth="9" markerHeight="9" orient="auto">
      <path d="M0 0 L10 5 L0 10 z" fill="#2f7f95"/>
    </marker>
    <style>
      text{font-family:"Segoe UI Variable Text","Segoe UI",ui-sans-serif,system-ui,sans-serif;letter-spacing:0}
      .eyebrow{font-family:"Segoe UI Variable Small","Segoe UI",ui-sans-serif,system-ui,sans-serif;font-size:37px;font-weight:780;fill:#55717f}
      .title{font-family:"Segoe UI Variable Display","Segoe UI",ui-sans-serif,system-ui,sans-serif;font-size:82px;font-weight:780;fill:#111827}
      .subtitle{font-size:39px;font-weight:650;fill:#334b5b}
      .section{font-size:24px;font-weight:780;fill:#55717f}
      .label{font-size:32px;font-weight:760;fill:#142235}
      .nodeLabel{font-size:28px;font-weight:760;fill:#142235}
      .small{font-size:23px;font-weight:680;fill:#536476}
      .tiny{font-size:19px;font-weight:700;fill:#647383}
      .footer{font-size:28px;font-weight:760;fill:#344456}
      .reverse{fill:#ffffff}
      .node{fill:#ffffff;stroke:#cedde4;stroke-width:3}
      .lane{fill:#f7fafb;stroke:#d8e5ea;stroke-width:3}
      .gate{fill:#fff9eb;stroke:#c9922e;stroke-width:3}
      .quiet{fill:#fbfcfd;stroke:#ccd9df;stroke-width:3}
      .flow{fill:none;stroke:#2f7f95;stroke-width:6;stroke-linecap:round}
      .soft{fill:none;stroke:#9fb8c2;stroke-width:4;stroke-linecap:round;stroke-dasharray:9 11}
    </style>
  </defs>

  <rect width="1920" height="1080" fill="url(#pageBg)"/>
  <rect x="64" y="64" width="1792" height="952" rx="30" fill="#ffffff" stroke="#d7e4e9" stroke-width="3" filter="url(#shadow)"/>

  <text x="136" y="158" class="eyebrow">INTERVIEW HELPER</text>
  <text x="136" y="276" class="title">Private coaching from</text>
  <text x="136" y="368" class="title">the evidence you prepared.</text>
  <text x="138" y="462" class="subtitle">The app listens, matches interview questions to your Story Log,</text>
  <text x="138" y="516" class="subtitle">and stays quiet when your notes do not support an answer.</text>

  <g transform="translate(1278 138)">
    <rect class="lane" x="0" y="0" width="438" height="218" rx="24"/>
    <text x="44" y="66" class="label">Selling point</text>
    <circle cx="52" cy="112" r="8" fill="#2f7f95"/>
    <text x="76" y="121" class="small">You prepare the evidence.</text>
    <circle cx="52" cy="154" r="8" fill="#2f7f95"/>
    <text x="76" y="163" class="small">Only you see the coaching.</text>
    <circle cx="52" cy="196" r="8" fill="#c9922e"/>
    <text x="76" y="205" class="small">No invented answers.</text>
  </g>

  <g transform="translate(136 600)">
    <rect class="lane" x="0" y="0" width="470" height="250" rx="24"/>
    <text x="30" y="42" class="section">BEFORE THE CALL</text>
    <rect class="node" x="30" y="72" width="185" height="132" rx="18"/>
    <circle cx="56" cy="106" r="18" fill="url(#teal)"/>
    <text x="56" y="114" text-anchor="middle" class="tiny reverse">1</text>
    <text x="122" y="132" text-anchor="middle" class="nodeLabel">Prepare</text>
    <rect x="72" y="146" width="102" height="12" rx="4" fill="#dfe9ed"/>
    <rect x="72" y="171" width="130" height="12" rx="4" fill="#dfe9ed"/>
    <rect class="node" x="250" y="72" width="185" height="132" rx="18"/>
    <circle cx="276" cy="106" r="18" fill="url(#teal)"/>
    <text x="276" y="114" text-anchor="middle" class="tiny reverse">2</text>
    <text x="342" y="132" text-anchor="middle" class="nodeLabel">Story Log</text>
    <text x="342" y="161" text-anchor="middle" class="tiny">stories, facts,</text>
    <text x="342" y="184" text-anchor="middle" class="tiny">proof points</text>
    <path class="flow" d="M215 138 H244" marker-end="url(#arrow)"/>
    <text x="235" y="226" text-anchor="middle" class="small">Your source of truth</text>

    <path class="flow" d="M488 125 H570" marker-end="url(#arrow)"/>

    <rect class="lane" x="596" y="0" width="500" height="250" rx="24"/>
    <text x="626" y="42" class="section">DURING THE CALL</text>
    <rect class="node" x="626" y="72" width="180" height="132" rx="18"/>
    <circle cx="652" cy="106" r="18" fill="url(#teal)"/>
    <text x="652" y="114" text-anchor="middle" class="tiny reverse">3</text>
    <text x="716" y="132" text-anchor="middle" class="nodeLabel">Listen</text>
    <rect x="664" y="151" width="48" height="34" rx="10" fill="#edf4ef" stroke="#9fb8aa" stroke-width="2"/>
    <text x="688" y="174" text-anchor="middle" class="tiny">Mic</text>
    <rect x="727" y="151" width="50" height="34" rx="10" fill="#edf3fb" stroke="#aebfd6" stroke-width="2"/>
    <text x="752" y="174" text-anchor="middle" class="tiny">Call</text>
    <rect class="gate" x="850" y="72" width="210" height="132" rx="18"/>
    <circle cx="878" cy="106" r="18" fill="#c9922e"/>
    <text x="878" y="114" text-anchor="middle" class="tiny reverse">4</text>
    <text x="955" y="132" text-anchor="middle" class="nodeLabel">Match</text>
    <path d="M918 154 l25 25 l54 -62" fill="none" stroke="#c9922e" stroke-width="10" stroke-linecap="round" stroke-linejoin="round"/>
    <text x="955" y="193" text-anchor="middle" class="tiny">evidence gate</text>
    <path class="flow" d="M806 138 H844" marker-end="url(#arrow)"/>
    <path class="soft" d="M955 210 V234 H776"/>
    <text x="760" y="240" text-anchor="end" class="tiny">No match: stays quiet</text>

    <path class="flow" d="M1114 125 H1196" marker-end="url(#arrow)"/>

    <rect class="lane" x="1222" y="0" width="426" height="250" rx="24"/>
    <text x="1252" y="42" class="section">ONLY YOU SEE</text>
    <rect x="1260" y="74" width="342" height="132" rx="22" fill="url(#inkPanel)"/>
    <rect x="1288" y="96" width="80" height="88" rx="13" fill="#263245" stroke="#3d4a61" stroke-width="2"/>
    <rect x="1390" y="96" width="172" height="88" rx="13" fill="#f7fafb" stroke="#d8e5ea" stroke-width="2"/>
    <text x="1476" y="126" text-anchor="middle" class="nodeLabel">Private</text>
    <text x="1476" y="158" text-anchor="middle" class="nodeLabel">overlay</text>
    <rect x="1422" y="170" width="108" height="13" rx="5" fill="#2f7f95"/>
    <rect x="1310" y="122" width="34" height="9" rx="4" fill="#a7b6c8"/>
    <rect x="1310" y="148" width="26" height="9" rx="4" fill="#a7b6c8"/>
    <text x="1431" y="230" text-anchor="middle" class="small">Talking points, not a script</text>
  </g>

  <g transform="translate(136 904)">
    <line x1="0" y1="0" x2="1320" y2="0" class="soft"/>
    <text x="0" y="54" class="footer">policani.net/resources.html#resources</text>
    <text x="1038" y="54" class="footer">No speaking. No typing. No invented answers.</text>
  </g>
</svg>
